<svg xmlns="http://www.w3.org/2000/svg" data-name="Layer 1" viewBox="0 0 512 512" id="diabetes-care"><path fill="#676e87" d="M365.5 377.5h-43.972a15 15 0 0 1-12.481-6.68L283.5 332.5h-55l-25.547 38.32a15 15 0 0 1-12.48 6.68H146.5a30 30 0 0 1-30-30v-310a30 30 0 0 1 30-30h219a30 30 0 0 1 30 30v310a30 30 0 0 1-30 30Z"></path><path fill="#595f74" d="M365.5 7.5h-30a30 30 0 0 1 30 30v310a30 30 0 0 1-30 30h30a30 30 0 0 0 30-30v-310a30 30 0 0 0-30-30zM172.953 370.82a15 15 0 0 1-12.48 6.68h30a15 15 0 0 0 12.48-6.68L228.5 332.5h-30z"></path><rect width="210" height="199" x="151" y="53" fill="#fff" rx="5" transform="rotate(90 256 152.5)"></rect><path fill="#f66" d="M263 152.5a37 37 0 0 1-74 0c0-20.435 37-67 37-67s37 46.565 37 67Z"></path><path fill="#ff4e4e" d="M226 85.5s-3.099 3.901-7.5 9.935c10.813 14.823 29.5 42.542 29.5 57.065a37.012 37.012 0 0 1-29.5 36.238A37.028 37.028 0 0 0 263 152.5c0-20.435-37-67-37-67Z"></path><path fill="#cecece" d="M273.5 504.5h-35a10 10 0 0 1-10-10v-177h55v177a10 10 0 0 1-10 10Z"></path><path fill="#bebebe" d="M261 317.5v177a10 10 0 0 1-10 10h22.5a10 10 0 0 0 10-10v-177Z"></path><path fill="#ff8e66" d="m335.936 296.7 25.447 16.418a7 7 0 0 1 0 11.764L335.936 341.3a5 5 0 0 1-7.71-4.202v-36.196a5 5 0 0 1 7.71-4.202Z"></path><path fill="#ff7c4e" d="M361.383 313.118 335.936 296.7a5 5 0 0 0-7.71 4.202v.501l18.157 11.715a7 7 0 0 1 0 11.764l-18.157 11.715v.501a5 5 0 0 0 7.71 4.202l25.447-16.418a7 7 0 0 0 0-11.764Z"></path><path fill="#63ea86" d="m176.064 296.7-25.447 16.418a7 7 0 0 0 0 11.764l25.447 16.418a5 5 0 0 0 7.71-4.202v-36.196a5 5 0 0 0-7.71-4.202Z"></path><path fill="#3ce568" d="m176.064 296.7-7.29 4.703v35.194l7.29 4.703a5 5 0 0 0 7.71-4.202v-36.196a5 5 0 0 0-7.71-4.202Z"></path><path fill="#313440" d="M184.755 289.925a12.493 12.493 0 0 0-12.757.473l-25.447 16.418a14.5 14.5 0 0 0 0 24.368l25.447 16.418a12.5 12.5 0 0 0 19.276-10.504v-36.196a12.493 12.493 0 0 0-6.519-10.977Zm-8.48 42.585L155.334 319l20.94-13.51ZM184 227.5a7.5 7.5 0 0 0 7.5 7.5h129a7.5 7.5 0 0 0 0-15h-129a7.5 7.5 0 0 0-7.5 7.5ZM287.43 93h23.07a7.5 7.5 0 0 0 0-15h-23.07a7.5 7.5 0 0 0 0 15Zm78.019 213.816-25.447-16.418a12.5 12.5 0 0 0-19.276 10.504v36.196a12.498 12.498 0 0 0 19.276 10.504l25.447-16.418a14.5 14.5 0 0 0 0-24.368Zm-29.723 25.694v-27.02l20.94 13.51ZM365.5 0h-219A37.542 37.542 0 0 0 109 37.5v310a37.542 37.542 0 0 0 37.5 37.5h43.972a22.455 22.455 0 0 0 18.721-10.02L221 357.27V494.5a17.52 17.52 0 0 0 17.5 17.5h35a17.52 17.52 0 0 0 17.5-17.5V357.27l11.807 17.71a22.455 22.455 0 0 0 18.72 10.02H365.5a37.542 37.542 0 0 0 37.5-37.5v-310A37.542 37.542 0 0 0 365.5 0ZM276 332.448V494.5a2.503 2.503 0 0 1-2.5 2.5h-35a2.503 2.503 0 0 1-2.5-2.5V325h40ZM388 347.5a22.525 22.525 0 0 1-22.5 22.5h-43.972a7.486 7.486 0 0 1-6.24-3.34L291 330.23V325h7.5a7.5 7.5 0 0 0 0-15h-85a7.5 7.5 0 0 0 0 15h7.5v5.23l-24.287 36.43a7.486 7.486 0 0 1-6.24 3.34H146.5a22.525 22.525 0 0 1-22.5-22.5v-310A22.525 22.525 0 0 1 146.5 15h219A22.525 22.525 0 0 1 388 37.5ZM287.43 123h23.07a7.5 7.5 0 0 0 0-15h-23.07a7.5 7.5 0 0 0 0 15ZM363 252.5v-200A12.514 12.514 0 0 0 350.5 40h-189A12.514 12.514 0 0 0 149 52.5v200a12.514 12.514 0 0 0 12.5 12.5h189a12.514 12.514 0 0 0 12.5-12.5Zm-15-2.5H164V55h184Zm-122-53a44.55 44.55 0 0 0 44.5-44.5c0-22.405-34.674-66.69-38.628-71.666a7.5 7.5 0 0 0-11.744 0C216.174 85.81 181.5 130.095 181.5 152.5A44.55 44.55 0 0 0 226 197Zm.001-99.173c13.24 17.84 29.499 43.436 29.499 54.673a29.5 29.5 0 0 1-59 0c0-11.224 16.26-36.826 29.501-54.673Z"></path></svg>